<?xml version="1.0" standalone="no"?>
<!DOCTYPE svg PUBLIC "-//W3C//DTD SVG 20010904//EN"
 "http://www.w3.org/TR/2001/REC-SVG-20010904/DTD/svg10.dtd">
<svg version="1.0" xmlns="http://www.w3.org/2000/svg"
 width="1123.000000pt" height="1123.000000pt" viewBox="0 0 1123.000000 1123.000000"
 preserveAspectRatio="xMidYMid meet">
<metadata>
Created by potrace 1.11, written by Peter Selinger 2001-2013
</metadata>
<g transform="translate(0.000000,1123.000000) scale(0.100000,-0.100000)"
fill="#000000" stroke="none">
<path d="M5370 11089 c-129 -76 -291 -171 -360 -210 -69 -40 -298 -173 -510
-297 -212 -123 -403 -234 -425 -247 -22 -12 -134 -77 -249 -144 -114 -68 -227
-133 -250 -146 -22 -13 -87 -50 -144 -84 -57 -34 -106 -61 -108 -61 -3 0 -17
-9 -32 -19 -21 -15 -729 -427 -863 -502 -13 -8 -32 -20 -41 -28 -15 -11 -24
-9 -68 18 -28 17 -53 31 -55 31 -3 0 -34 17 -68 38 -136 85 -220 132 -234 132
-8 0 -67 -31 -131 -69 -64 -38 -162 -95 -217 -127 -55 -31 -154 -89 -220 -127
-66 -39 -145 -85 -175 -102 -30 -18 -111 -65 -180 -105 -69 -40 -138 -80 -153
-89 -16 -9 -36 -21 -45 -26 -9 -6 -47 -27 -84 -48 -37 -21 -70 -42 -73 -47 -4
-6 243 -150 770 -450 17 -9 145 -82 285 -162 140 -80 272 -155 293 -167 21
-12 98 -56 170 -98 157 -91 179 -103 190 -103 4 0 106 57 225 126 119 70 233
136 252 146 19 11 161 94 315 183 154 90 296 172 315 183 19 10 86 49 148 86
62 36 132 77 155 90 23 13 121 69 218 125 l177 102 0 155 c0 85 1 157 3 158 8
8 189 116 194 116 2 0 28 15 58 33 66 40 221 132 452 267 24 14 154 90 289
170 136 80 254 150 264 155 9 6 47 27 84 48 l66 38 389 -227 c213 -124 400
-235 415 -245 15 -10 29 -19 32 -19 2 0 73 -41 158 -91 84 -50 215 -127 291
-171 l137 -80 0 -157 0 -157 228 -129 c125 -72 241 -137 257 -146 17 -9 183
-106 370 -214 187 -109 360 -209 385 -223 25 -13 50 -28 55 -32 6 -4 30 -18
55 -32 25 -14 132 -75 237 -137 106 -61 199 -114 207 -117 11 -4 141 62 246
126 27 17 225 131 290 167 14 8 42 24 63 36 73 43 541 312 586 338 25 15 134
78 241 140 107 62 216 124 242 138 26 15 47 29 45 33 -1 6 -610 365 -792 468
-16 9 -128 74 -247 143 -120 70 -224 127 -232 127 -8 0 -54 -24 -103 -53 -188
-114 -287 -170 -298 -170 -5 0 -217 120 -470 268 -253 147 -476 277 -495 287
-19 11 -39 24 -45 28 -5 4 -35 21 -65 37 -30 17 -93 53 -140 80 -47 28 -157
92 -245 143 -88 51 -185 107 -215 125 -67 40 -1031 601 -1260 733 -91 52 -187
109 -215 126 -45 28 -103 58 -108 55 -1 -1 -108 -63 -237 -140z"/>
<path d="M10486 8485 c-99 -58 -180 -105 -182 -105 -1 0 -39 -22 -84 -50 -45
-27 -83 -50 -86 -50 -2 0 -23 -11 -45 -26 -41 -25 -76 -46 -159 -92 -25 -13
-49 -28 -55 -32 -5 -4 -26 -17 -45 -28 -73 -41 -162 -93 -360 -209 -113 -66
-268 -156 -345 -201 l-140 -81 0 -1079 c0 -594 2 -1083 5 -1086 3 -3 60 -32
126 -65 l121 -59 0 -814 0 -814 -231 -134 c-127 -74 -274 -159 -326 -190 -52
-31 -115 -68 -140 -82 -42 -24 -438 -254 -507 -294 -89 -54 -250 -144 -255
-144 -3 0 -67 29 -142 65 -75 36 -141 65 -146 65 -6 0 -65 -32 -133 -71 -67
-40 -165 -97 -217 -127 -52 -30 -158 -92 -235 -137 -77 -46 -156 -92 -175
-103 -19 -12 -66 -39 -105 -62 -38 -22 -88 -51 -110 -65 -22 -14 -47 -28 -55
-32 -8 -4 -150 -86 -315 -183 -165 -97 -319 -187 -342 -200 -43 -23 -43 -24
-43 -79 -2 -556 1 -1915 5 -1919 2 -3 288 166 635 374 l630 379 0 237 0 237
28 14 c15 7 119 67 232 132 113 65 372 213 575 330 204 117 437 251 519 299
82 47 151 86 152 86 2 0 44 25 94 55 50 30 92 55 94 55 2 0 55 30 117 66 63
37 134 78 159 92 25 14 119 68 210 120 91 52 185 106 210 120 25 14 119 68
210 120 91 52 181 104 200 115 19 10 114 64 210 120 96 55 192 110 213 121 34
18 37 23 37 65 1 25 1 870 1 1878 l0 1831 37 25 c20 14 105 67 187 117 83 51
152 96 155 100 7 11 6 1487 0 1494 -3 3 -86 -42 -184 -99z"/>
<path d="M550 7836 l0 -744 178 -117 c97 -65 179 -119 181 -121 3 -2 5 -849 5
-1881 l1 -1877 195 -113 c107 -62 202 -116 210 -120 8 -4 52 -29 97 -55 44
-26 84 -48 88 -48 3 0 26 -13 50 -30 24 -16 46 -30 48 -30 3 0 103 -57 223
-126 121 -70 242 -139 269 -154 28 -15 212 -121 410 -235 426 -245 748 -431
790 -455 17 -9 54 -31 83 -49 29 -17 55 -31 57 -31 3 0 33 -17 67 -38 35 -21
88 -52 118 -69 30 -17 172 -99 315 -181 l260 -150 2 -227 c1 -125 4 -232 6
-239 3 -7 41 -34 84 -59 43 -25 308 -179 588 -342 281 -164 529 -309 553 -322
l42 -25 -2 993 -3 993 -80 46 c-304 176 -1403 815 -1428 831 -18 10 -39 22
-47 26 -8 4 -37 21 -65 39 -75 47 -85 48 -156 16 -35 -16 -100 -46 -144 -66
-61 -29 -84 -35 -100 -28 -11 5 -250 144 -530 308 -281 164 -532 311 -560 326
-27 16 -63 38 -80 48 -16 11 -37 23 -46 27 -9 5 -66 37 -127 73 l-112 65 0
806 0 805 135 64 135 63 0 1088 0 1088 -57 34 c-32 19 -80 47 -108 63 -27 15
-207 117 -400 227 -192 110 -370 211 -395 225 -25 14 -49 28 -55 32 -5 4 -35
21 -65 37 -30 17 -142 80 -249 142 -106 61 -194 111 -196 111 -1 0 -40 22 -86
50 -46 27 -87 50 -91 50 -5 0 -8 -335 -8 -744z"/>
<path d="M3780 8409 c-58 -34 -123 -71 -145 -84 -22 -12 -107 -61 -188 -109
-82 -47 -150 -86 -153 -86 -3 0 -17 -8 -32 -19 -25 -17 -498 -292 -587 -341
-22 -12 -80 -45 -130 -75 l-90 -53 -3 -870 -2 -870 305 -184 c168 -100 325
-194 348 -208 24 -14 264 -157 533 -319 l489 -294 -1 -936 0 -937 199 -115
c109 -62 231 -132 270 -155 40 -23 182 -105 317 -184 135 -78 270 -156 300
-172 30 -17 98 -56 150 -87 52 -32 127 -75 166 -96 l70 -38 90 52 c49 29 177
104 284 168 107 63 209 123 225 133 88 51 484 285 505 299 14 8 35 21 47 28
12 6 81 46 153 89 l130 77 0 972 c0 766 3 975 13 983 6 5 28 19 47 30 19 11
91 52 160 92 69 40 145 84 170 98 25 14 62 36 82 49 21 12 39 23 42 23 2 0 35
19 72 42 38 23 112 66 164 96 131 75 130 75 545 315 l370 214 0 854 0 854 -40
23 c-22 13 -58 34 -80 47 -22 12 -134 77 -250 145 -115 67 -226 131 -245 142
-19 11 -87 51 -150 88 -364 212 -622 361 -635 366 -8 3 -95 -43 -197 -104
-101 -60 -273 -162 -383 -227 -110 -64 -212 -126 -227 -136 -15 -10 -29 -19
-31 -19 -3 0 -79 -44 -169 -99 -91 -54 -169 -100 -174 -102 -5 -2 -120 -71
-256 -152 l-248 -148 -332 194 c-183 107 -412 241 -508 297 -167 98 -310 182
-375 220 -74 43 -212 124 -347 203 -81 48 -151 87 -155 86 -5 0 -55 -27 -113
-60z"/>
</g>
</svg>
